# AST/ASF file generated using VICON BodyLanguage
# -----------------------------------------------
:version 1.10
:name VICON
:units
  mass 1.0
  length 0.45
  angle deg
:documentation
   .ast/.asf automatically generated from VICON data using
   VICON BodyBuilder and BodyLanguage model FoxedUp or BRILLIANT.MOD
:root
   order TX TY TZ RX RY RZ
   axis XYZ
   position 0 0 0  
   orientation 0 -0 0 
:bonedata
  begin
     id 1 
     name lhipjoint
     direction 0.500677 -0.737119 0.453848 
     length 2.34727 
     axis 0 -0 0  XYZ
  end
  begin
     id 2 
     name lfemur
     direction 0.34202 -0.939693 0  
     length 7.53653  
     axis 0 -0 20  XYZ
    dof rx ry rz
    limits (-160.0 20.0)
           (-70.0 70.0)
           (-60.0 70.0)
  end
  begin
     id 3 
     name ltibia
     direction 0.34202 -0.939693 0   
     length 6.85572   
     axis 0 -0 20   XYZ
    dof rx
    limits (-10.0 170.0)
  end
  begin
     id 4 
     name lfoot
     direction 0.155313 -0.426718 0.890949   
     length 2.18324   
     axis -90 -1.13533e-015 20   XYZ
    dof rx rz
    limits (-45.0 90.0)
           (-70.0 20.0)
  end
  begin
     id 5 
     name ltoes
     direction 1.53474e-011 -4.21647e-011 1   
     length 1.06748   
     axis -90 -1.13533e-015 20   XYZ
    dof rx
    limits (-90.0 20.0)
  end
  begin
     id 6 
     name rhipjoint
     direction -0.632471 -0.659587 0.406111   
     length 2.62319  
     axis 0 -0 0  XYZ 
  end
  begin
     id 7 
     name rfemur
     direction -0.34202 -0.939693 0   
     length 7.21735   
     axis 0 -0 -20   XYZ
    dof rx ry rz
    limits (-160.0 20.0)
           (-70.0 70.0)
           (-70.0 60.0)
  end
  begin
     id 8 
     name rtibia
     direction -0.34202 -0.939693 0   
     length 7.02558   
     axis 0 -0 -20   XYZ
    dof rx
    limits (-10.0 170.0)
 end
 begin
     id 9 
     name rfoot
     direction -0.16057 -0.441164 0.882945   
     length 2.10014  
     axis -90 1.13533e-015 -20   XYZ
    dof rx rz
    limits (-45.0 90.0)
           (-20.0 70.0)
  end
  begin
     id 10 
     name rtoes
     direction -1.53553e-011 -4.2192e-011 1   
     length 1.02554   
     axis -90 1.13533e-015 -20   XYZ
    dof rx
    limits (-90.0 20.0)
  end
  begin
     id 11 
     name lowerback
     direction 0.0401429 0.998861 -0.0258085   
     length 1.80848   
     axis 0 -0 0   XYZ
    dof rx ry rz
    limits (-20.0 45.0)
           (-30.0 30.0)
           (-30.0 30.0)
  end
  begin
     id 12 
     name upperback
     direction -0.0130978 0.999914 -0.000352645   
     length 1.8116   
     axis 0 -0 0   XYZ
    dof rx ry rz
    limits (-20.0 45.0)
           (-30.0 30.0)
           (-30.0 30.0)
  end
  begin
     id 13 
     name thorax
     direction -0.0300198 0.999453 0.0138573   
     length 1.81778   
     axis 0 -0 0   XYZ
    dof rx ry rz
    limits (-20.0 45.0)
           (-30.0 30.0)
           (-30.0 30.0)
  end
  begin
     id 14 
     name lowerneck
     direction -0.0401726 0.999191 -0.00173647   
     length 2.10594   
     axis 0 -0 0   XYZ
    dof rx ry rz
    limits (-20.0 45.0)
           (-30.0 30.0)
           (-30.0 30.0)
  end
  begin
     id 15 
     name upperneck
     direction 0.0119835 0.998501 0.0534085   
     length 2.07325   
     axis 0 -0 0   XYZ
    dof rx ry rz
    limits (-20.0 45.0)
           (-30.0 30.0)
           (-30.0 30.0)
  end
  begin
     id 16
     name head
     direction 0.00628309 0.999826 0.0175921  
     length 2.15096  
     axis 0 -0 0   XYZ
    dof rx ry rz
    limits (-20.0 45.0)
           (-30.0 30.0)
           (-30.0 30.0)
  end
  begin
     id 17 
     name lclavicle
     direction 0.895501 0.429681 -0.115981  
     length 4.18092  
     axis 0 -0 0   XYZ
    dof ry rz
    limits (-20.0 10.0)
           (0.0 20.0)
  end
  begin
     id 18 
     name lhumerus
     direction 1 -4.48961e-011 -3.38433e-028   
     length 5.77237   
     axis 180 -30 -90   XYZ
    dof rx ry rz
    limits (-60.0 90.0)
           (-90.0 90.0)
           (-90.0 90.0)
  end
  begin
     id 19
     name lradius
     direction 1 -4.4901e-011 1.11983e-026   
     length 2.91878   
     axis 180 -30 -90   XYZ
    dof rx
    limits (-10.0 170.0)
  end
  begin
     id 20
     name lwrist
     direction 1 -4.48934e-011 1.88176e-026   
     length 1.45939   
     axis -1.23311e-014 90 90   XYZ
    dof ry
    limits (-180.0 0.0)
 end
  begin
     id 21 
     name lhand
     direction 1 -4.4895e-011 3.76352e-026   
     length 1.06566   
     axis -2.40147e-014 90 90   XYZ
    dof rx rz
    limits (-90.0 90.0)
           (-45.0 45.0)
  end
  begin
     id 22 
     name lfingers
     direction 1 -4.49005e-011 7.52705e-026   
     length 0.859162   
     axis -4.80295e-014 90 90   XYZ
    dof rx
    limits (0.0 90.0)
  end
  begin
     id 23
     name lthumb
     direction 0.707107 -6.34885e-011 0.707107   
     length 1.23359   
     axis -90 45 -9.86935e-015   XYZ
    dof rx rz
    limits (-45.0 45.0)
           (-45.0 45.0)
  end
  begin
     id 24 
     name rclavicle
     direction -0.91006 0.40451 -0.0903492   
     length 4.23293  
     axis 0 -0 0   XYZ 
    dof ry rz
    limits (-10.0 20.0)
           (-20.0 0.0)
  end
  begin
     id 25 
     name rhumerus
     direction -1 -4.4897e-011 1.7415e-027  
     length 5.49854   
     axis 180 30 90   XYZ
    dof rx ry rz
    limits (-90.0 60.0)
           (-90.0 90.0)
           (-90.0 90.0)
  end
  begin
     id 26 
     name rradius
     direction -1 -4.48963e-011 1.21259e-026   
     length 3.1186   
     axis 180 30 90   XYZ
    dof rx
    limits (-10.0 170.0)
  end
  begin
     id 27 
     name rwrist
     direction -1 -4.48967e-011 1.88176e-026   
     length 1.5593   
     axis -1.23311e-014 -90 -90   XYZ
    dof ry
    limits (-180.0 0.0)
  end
  begin
     id 28
     name rhand
     direction -1 -4.4895e-011 3.76352e-026   
     length 0.71207   
     axis -2.40147e-014 -90 -90   XYZ
    dof rx rz
    limits (-90.0 90.0)
           (-45.0 45.0)
  end
  begin
     id 29
     name rfingers
     direction -1 -4.49005e-011 7.52705e-026   
     length 0.574089   
     axis -4.80295e-014 -90 -90   XYZ
    dof rx
    limits (0.0 90.0)
  end
  begin
     id 30
     name rthumb
     direction -0.707107 -6.34982e-011 0.707107   
     length 0.824281   
     axis -90 -45 9.86935e-015   XYZ
    dof rx rz
    limits (-45.0 45.0)
           (-45.0 45.0)
  end
:hierarchy
  begin
    root lhipjoint rhipjoint lowerback
    lhipjoint lfemur
    lfemur ltibia
    ltibia lfoot
    lfoot ltoes
    rhipjoint rfemur
    rfemur rtibia
    rtibia rfoot
    rfoot rtoes
    lowerback upperback
    upperback thorax
    thorax lowerneck lclavicle rclavicle
    lowerneck upperneck
    upperneck head
    lclavicle lhumerus
    lhumerus lradius
    lradius lwrist
    lwrist lhand lthumb
    lhand lfingers
    rclavicle rhumerus
    rhumerus rradius
    rradius rwrist
    rwrist rhand rthumb
    rhand rfingers
  end

#!OML:ASF C:\ViconDB\ViconDB\414\Spring2016\042216\male.ASF
:FULLY-SPECIFIED
:DEGREES
674
root 29.5153 17.707 9.46943 780.347 84.0025 1137.25
lowerback -1.02288 -4.47535 4.06106
upperback -0.497574 -5.98044 1.5783
thorax -0.185731 -2.98697 -0.678369
lowerneck -1.84482 3.26662 -4.43288
upperneck -3.73184 4.50256 2.36704
head -1.00928 2.30177 1.46154
rclavicle 3.3197e-014 -1.74931e-014
rhumerus -37.5926 -17.7027 -77.3891
rradius 25.9976
rwrist 37.2794
rhand 12.6245 -19.4416
rfingers 7.12502
rthumb 37.6112 -45.3456
lclavicle 3.3197e-014 -1.74931e-014
lhumerus -30.5823 0.762777 97.6852
lradius 41.3484
lwrist -9.04467
lhand -4.93052 13.0723
lfingers 7.12502
lthumb 20.8602 41.9708
rfemur -31.1041 20.7297 -3.1614
rtibia 23.8474
rfoot -6.86462 -14.2499
rtoes -16.1088
lfemur 16.7542 -7.8821 -23.9112
ltibia -1.90833e-014
lfoot -7.78559 12.5478
ltoes -28.0732
675
root 29.6391 17.6693 9.54587 790.583 83.9496 1147.48
lowerback -1.02086 -4.40583 3.74146
upperback -0.631324 -5.88203 1.52968
thorax -0.293024 -2.94094 -0.546791
lowerneck -1.83401 2.9124 -4.55988
upperneck -3.57952 4.03716 2.73757
head -0.958993 2.0661 1.60702
rclavicle -7.55382e-015 -1.27222e-014
rhumerus -37.4147 -17.7572 -77.3813
rradius 26.1427
rwrist 37.4822
rhand 13.4136 -19.015
rfingers 7.12502
rthumb 38.3563 -44.7164
lclavicle -7.55382e-015 -1.27222e-014
lhumerus -31.1022 1.02147 97.6736
lradius 40.9844
lwrist -9.76227
lhand -4.2397 12.8081
lfingers 7.12502
lthumb 21.5238 41.6321
rfemur -30.4227 20.8625 -3.7894
rtibia 23.5228
rfoot -6.9291 -14.9596
rtoes -16.0177
lfemur 17.0386 -8.17326 -24.066
ltibia 0
lfoot -7.73948 11.8046
ltoes -28.6169
676
root 29.7664 17.6359 9.63546 799.819 84.2838 1156.68
lowerback -1.07969 -4.3843 3.76005
upperback -0.734927 -5.84972 1.6821
thorax -0.351408 -2.925 -0.402011
lowerneck -1.95771 2.54963 -4.69689
upperneck -3.33505 3.56497 3.13639
head -0.854822 1.82772 1.76614
rclavicle 3.91606e-014 7.95139e-015
rhumerus -37.119 -17.3919 -77.6843
rradius 26.2359
rwrist 36.6455
rhand 13.303 -19.0459
rfingers 7.12502
rthumb 38.252 -44.7761
lclavicle 3.91606e-014 7.95139e-015
lhumerus -31.7038 0.980797 97.6437
lradius 40.8817
lwrist -9.55717
lhand -4.06295 12.7998
lfingers 7.12502
lthumb 21.6935 41.6043
rfemur -29.7185 22.2975 -4.13117
rtibia 23.0938
rfoot -7.43319 -16.8914
rtoes -15.5099
lfemur 17.3037 -8.53218 -23.5251
ltibia 2.22639e-014
lfoot -7.86971 11.0754
ltoes -28.2209
677
root 29.8891 17.5905 9.72229 811.936 84.0162 1168.6
lowerback -1.36482 -4.37178 3.41933
upperback -0.828017 -5.84138 1.71692
thorax -0.24964 -2.91912 -0.200707
lowerneck -2.06811 2.17203 -4.76911
upperneck -3.25434 3.07141 3.3854
head -0.796201 1.58092 1.86409
rclavicle -4.02539e-014 -1.43125e-014
rhumerus -36.8174 -17.1416 -77.8578
rradius 26.5329
rwrist 36.1348
rhand 12.7782 -19.1311
rfingers 7.12502
rthumb 37.7564 -44.9962
lclavicle -4.02539e-014 -1.43125e-014
lhumerus -31.9998 1.42834 97.5247
lradius 40.4799
lwrist -9.91892
lhand -3.805 12.9678
lfingers 7.12502
lthumb 21.9412 41.7436
rfemur -29.0028 22.666 -4.65467
rtibia 22.6216
rfoot -7.191 -18.1612
rtoes -16.2612
lfemur 17.3406 -9.08227 -23.4637
ltibia 3.18055e-015
lfoot -7.66453 10.3389
ltoes -29.0782
678
root 30.0243 17.5356 9.81468 821.427 83.7273 1178.21
lowerback -1.50494 -4.37005 3.19154
upperback -0.773148 -5.84542 1.74252
thorax -0.0896337 -2.91808 -0.0655622
lowerneck -2.18661 1.83587 -4.81008
upperneck -3.19311 2.63552 3.71662
head -0.744001 1.36274 1.98259
rclavicle 2.61402e-014 -2.38542e-014
rhumerus -36.5327 -17.0791 -77.9867
rradius 26.6922
rwrist 35.939
rhand 12.7033 -19.0617
rfingers 7.12502
rthumb 37.6856 -44.9458
lclavicle 2.61402e-014 -2.38542e-014
lhumerus -32.2258 2.00976 97.1537
lradius 39.9946
lwrist -10.1155
lhand -3.73185 12.9826
lfingers 7.12502
lthumb 22.0114 41.75
rfemur -27.9418 23.7619 -4.89406
rtibia 22.1879
rfoot -7.42313 -20.0721
rtoes -16.3804
lfemur 17.7993 -9.48575 -23.2278
ltibia -9.54166e-015
lfoot -7.70117 9.78302
ltoes -29.3839
679
root 30.1598 17.4782 9.90535 830.009 83.026 1186.85
lowerback -1.68298 -4.40117 2.7773
upperback -0.766869 -5.89155 1.68404
thorax 0.0508235 -2.93972 0.0848908
lowerneck -2.26938 1.5477 -4.83008
upperneck -3.12198 2.26143 4.06676
head -0.695816 1.17505 2.10289
rclavicle 2.33572e-014 4.45278e-014
rhumerus -36.2856 -17.155 -78.1005
rradius 26.8493
rwrist 35.8526
rhand 12.2015 -19.2166
rfingers 7.12502
rthumb 37.2113 -45.2262
lclavicle 2.33572e-014 4.45278e-014
lhumerus -32.4754 2.74001 96.5645
lradius 39.5564
lwrist -10.3957
lhand -3.595 12.7389
lfingers 7.12502
lthumb 22.1428 41.4908
rfemur -26.9974 24.5554 -5.25751
rtibia 22.1384
rfoot -6.99737 -21.7261
rtoes -15.7805
lfemur 18.1703 -9.98778 -23.2354
ltibia 1.59028e-014
lfoot -7.74394 9.16252
ltoes -30.1115
